{
    "asset" : {
        "generator" : "Khronos glTF Blender I/O v1.2.75",
        "version" : "2.0"
    },
    "scene" : 0,
    "scenes" : [
        {
            "name" : "Scene",
            "nodes" : [
                0,
                1,
                2,
                3,
                4
            ]
        }
    ],
    "nodes" : [
        {
            "name" : "Light",
            "rotation" : [
                0.16907575726509094,
                0.7558803558349609,
                -0.27217137813568115,
                0.570947527885437
            ],
            "translation" : [
                4.033003330230713,
                5.903861999511719,
                0.8377854824066162
            ]
        },
        {
            "name" : "Camera",
            "rotation" : [
                0.483536034822464,
                0.33687159419059753,
                -0.20870360732078552,
                0.7804827094078064
            ],
            "translation" : [
                7.358891487121582,
                4.958309173583984,
                6.925790786743164
            ]
        },
        {
            "mesh" : 0,
            "name" : "object_1",
            "rotation" : [
                0.7071068286895752,
                0,
                0,
                0.7071067094802856
            ],
            "translation" : [
                -0.04324217140674591,
                0,
                1.843239426612854
            ]
        },
        {
            "mesh" : 1,
            "name" : "object_5",
            "rotation" : [
                0.7071068286895752,
                0,
                0,
                0.7071067094802856
            ],
            "translation" : [
                -0.04324217140674591,
                0,
                1.843239426612854
            ]
        },
        {
            "mesh" : 2,
            "name" : "top_mattress",
            "rotation" : [
                0.7071068286895752,
                0,
                0,
                0.7071067094802856
            ],
            "translation" : [
                -0.04324217140674591,
                0,
                1.843239426612854
            ]
        }
    ],
    "materials" : [
        {
            "alphaMode" : "BLEND",
            "doubleSided" : true,
            "emissiveFactor" : [
                0,
                0,
                0
            ],
            "name" : "material_9",
            "pbrMetallicRoughness" : {
                "baseColorFactor" : [
                    0.6428470015525818,
                    0.6428470015525818,
                    0.6428470015525818,
                    1
                ],
                "metallicFactor" : 1,
                "roughnessFactor" : 0.6666666865348816
            }
        },
        {
            "alphaMode" : "BLEND",
            "doubleSided" : true,
            "emissiveFactor" : [
                0,
                0,
                0
            ],
            "name" : "material_1",
            "pbrMetallicRoughness" : {
                "baseColorFactor" : [
                    0.75,
                    0.75,
                    0.75,
                    1
                ],
                "metallicFactor" : 1,
                "roughnessFactor" : 0.6666666865348816
            }
        },
        {
            "alphaMode" : "BLEND",
            "doubleSided" : true,
            "emissiveFactor" : [
                0,
                0,
                0
            ],
            "name" : "material_13",
            "pbrMetallicRoughness" : {
                "baseColorFactor" : [
                    0.4163079857826233,
                    0.536083996295929,
                    0.6258869767189026,
                    1
                ],
                "metallicFactor" : 1,
                "roughnessFactor" : 0.6666666865348816
            }
        }
    ],
    "meshes" : [
        {
            "name" : "object_1",
            "primitives" : [
                {
                    "attributes" : {
                        "POSITION" : 0,
                        "NORMAL" : 1
                    },
                    "indices" : 2,
                    "material" : 0
                }
            ]
        },
        {
            "name" : "object_5",
            "primitives" : [
                {
                    "attributes" : {
                        "POSITION" : 3,
                        "NORMAL" : 4
                    },
                    "indices" : 2,
                    "material" : 1
                }
            ]
        },
        {
            "name" : "top_mattress",
            "primitives" : [
                {
                    "attributes" : {
                        "POSITION" : 5,
                        "NORMAL" : 6
                    },
                    "indices" : 7,
                    "material" : 2
                },
                {
                    "attributes" : {
                        "POSITION" : 8,
                        "NORMAL" : 9
                    },
                    "indices" : 10,
                    "material" : 0
                }
            ]
        }
    ],
    "accessors" : [
        {
            "bufferView" : 0,
            "componentType" : 5126,
            "count" : 8,
            "max" : [
                2.2160000801086426,
                -1.8389999866485596,
                0
            ],
            "min" : [
                0.2160000056028366,
                -3.6389999389648438,
                -0.07000000029802322
            ],
            "type" : "VEC3"
        },
        {
            "bufferView" : 1,
            "componentType" : 5126,
            "count" : 8,
            "type" : "VEC3"
        },
        {
            "bufferView" : 2,
            "componentType" : 5123,
            "count" : 36,
            "type" : "SCALAR"
        },
        {
            "bufferView" : 3,
            "componentType" : 5126,
            "count" : 8,
            "max" : [
                2.2160000801086426,
                -1.8389999866485596,
                -0.07000000029802322
            ],
            "min" : [
                0.2160000056028366,
                -3.6389999389648438,
                -0.17000000178813934
            ],
            "type" : "VEC3"
        },
        {
            "bufferView" : 4,
            "componentType" : 5126,
            "count" : 8,
            "type" : "VEC3"
        },
        {
            "bufferView" : 5,
            "componentType" : 5126,
            "count" : 9928,
            "max" : [
                2.2160000801086426,
                -1.8389999866485596,
                -0.17000000178813934
            ],
            "min" : [
                0.2160000056028366,
                -3.6389999389648438,
                -0.23000000417232513
            ],
            "type" : "VEC3"
        },
        {
            "bufferView" : 6,
            "componentType" : 5126,
            "count" : 9928,
            "type" : "VEC3"
        },
        {
            "bufferView" : 7,
            "componentType" : 5123,
            "count" : 44460,
            "type" : "SCALAR"
        },
        {
            "bufferView" : 8,
            "componentType" : 5126,
            "count" : 9920,
            "max" : [
                2.183000087738037,
                -1.9220000505447388,
                -0.17000000178813934
            ],
            "min" : [
                0.2160000056028366,
                -3.611999988555908,
                -0.23000000417232513
            ],
            "type" : "VEC3"
        },
        {
            "bufferView" : 9,
            "componentType" : 5126,
            "count" : 9920,
            "type" : "VEC3"
        },
        {
            "bufferView" : 10,
            "componentType" : 5123,
            "count" : 29574,
            "type" : "SCALAR"
        }
    ],
    "bufferViews" : [
        {
            "buffer" : 0,
            "byteLength" : 96,
            "byteOffset" : 0
        },
        {
            "buffer" : 0,
            "byteLength" : 96,
            "byteOffset" : 96
        },
        {
            "buffer" : 0,
            "byteLength" : 72,
            "byteOffset" : 192
        },
        {
            "buffer" : 0,
            "byteLength" : 96,
            "byteOffset" : 264
        },
        {
            "buffer" : 0,
            "byteLength" : 96,
            "byteOffset" : 360
        },
        {
            "buffer" : 0,
            "byteLength" : 119136,
            "byteOffset" : 456
        },
        {
            "buffer" : 0,
            "byteLength" : 119136,
            "byteOffset" : 119592
        },
        {
            "buffer" : 0,
            "byteLength" : 88920,
            "byteOffset" : 238728
        },
        {
            "buffer" : 0,
            "byteLength" : 119040,
            "byteOffset" : 327648
        },
        {
            "buffer" : 0,
            "byteLength" : 119040,
            "byteOffset" : 446688
        },
        {
            "buffer" : 0,
            "byteLength" : 59148,
            "byteOffset" : 565728
        }
    ],
    "buffers" : [
        {
            "byteLength" : 624876,
            "uri" : "data:application/octet-stream;base64,"
        }
    ]
}
